<mxfile host="65bd71144e">
    <diagram id="pKKzwZEE8nYBjqgNbyn1" name="Page-1">
        <mxGraphModel dx="2132" dy="3239" grid="1" gridSize="10" guides="1" tooltips="1" connect="1" arrows="1" fold="1" page="1" pageScale="1" pageWidth="827" pageHeight="1169" math="0" shadow="0">
            <root>
                <mxCell id="0"/>
                <mxCell id="1" parent="0"/>
                <mxCell id="3" value="to_visit - список элементов которые необходимо посетить&lt;br&gt;visited - список элементов которые уже были просмотрены&lt;br&gt;" style="shape=note;whiteSpace=wrap;html=1;backgroundOutline=1;darkOpacity=0.05;align=left;" vertex="1" parent="1">
                    <mxGeometry x="270" y="140" width="370" height="100" as="geometry"/>
                </mxCell>
                <mxCell id="7" value="" style="edgeStyle=none;html=1;" edge="1" parent="1" source="4" target="6">
                    <mxGeometry relative="1" as="geometry"/>
                </mxCell>
                <mxCell id="4" value="" style="ellipse;whiteSpace=wrap;html=1;" vertex="1" parent="1">
                    <mxGeometry x="130" y="80" width="60" height="40" as="geometry"/>
                </mxCell>
                <mxCell id="9" value="" style="edgeStyle=none;html=1;" edge="1" parent="1" source="6" target="8">
                    <mxGeometry relative="1" as="geometry"/>
                </mxCell>
                <mxCell id="6" value="Выбрать трубу" style="rounded=1;whiteSpace=wrap;html=1;" vertex="1" parent="1">
                    <mxGeometry x="100" y="170" width="120" height="60" as="geometry"/>
                </mxCell>
                <mxCell id="11" value="" style="edgeStyle=none;html=1;" edge="1" parent="1" source="8" target="10">
                    <mxGeometry relative="1" as="geometry"/>
                </mxCell>
                <mxCell id="12" value="Есть" style="edgeLabel;html=1;align=center;verticalAlign=middle;resizable=0;points=[];" vertex="1" connectable="0" parent="11">
                    <mxGeometry x="-0.448" y="-3" relative="1" as="geometry">
                        <mxPoint as="offset"/>
                    </mxGeometry>
                </mxCell>
                <mxCell id="14" value="" style="edgeStyle=none;html=1;" edge="1" parent="1" source="8" target="13">
                    <mxGeometry relative="1" as="geometry">
                        <Array as="points">
                            <mxPoint y="300"/>
                            <mxPoint y="790"/>
                            <mxPoint x="160" y="790"/>
                            <mxPoint x="160" y="850"/>
                        </Array>
                    </mxGeometry>
                </mxCell>
                <mxCell id="15" value="Пусто" style="edgeLabel;html=1;align=center;verticalAlign=middle;resizable=0;points=[];" vertex="1" connectable="0" parent="14">
                    <mxGeometry x="-0.7898" y="1" relative="1" as="geometry">
                        <mxPoint as="offset"/>
                    </mxGeometry>
                </mxCell>
                <mxCell id="8" value="Есть еще элементы" style="rhombus;whiteSpace=wrap;html=1;rounded=1;" vertex="1" parent="1">
                    <mxGeometry x="120" y="260" width="80" height="80" as="geometry"/>
                </mxCell>
                <mxCell id="17" value="" style="edgeStyle=none;html=1;" edge="1" parent="1" source="10" target="16">
                    <mxGeometry relative="1" as="geometry"/>
                </mxCell>
                <mxCell id="19" value="" style="edgeStyle=none;html=1;" edge="1" parent="1" source="10" target="16">
                    <mxGeometry relative="1" as="geometry"/>
                </mxCell>
                <mxCell id="21" value="" style="edgeStyle=none;html=1;" edge="1" parent="1" source="10" target="20">
                    <mxGeometry relative="1" as="geometry"/>
                </mxCell>
                <mxCell id="22" value="Один из присоединенных элементов -&amp;nbsp;" style="edgeLabel;html=1;align=center;verticalAlign=middle;resizable=0;points=[];" vertex="1" connectable="0" parent="21">
                    <mxGeometry x="-0.1957" relative="1" as="geometry">
                        <mxPoint as="offset"/>
                    </mxGeometry>
                </mxCell>
                <mxCell id="10" value="&lt;div&gt;&lt;span&gt;elem = to_visit.pop()&lt;/span&gt;&lt;/div&gt;con1, con2 &amp;lt;- get_end_connected_parts()&lt;br&gt;visited.append(elem.Id)" style="rounded=1;whiteSpace=wrap;html=1;align=left;" vertex="1" parent="1">
                    <mxGeometry x="15" y="370" width="290" height="60" as="geometry"/>
                </mxCell>
                <mxCell id="13" value="" style="whiteSpace=wrap;html=1;rounded=1;" vertex="1" parent="1">
                    <mxGeometry x="100" y="850" width="120" height="60" as="geometry"/>
                </mxCell>
                <mxCell id="16" value="if con1 is None or con2 is None - Это последний элемент&lt;br&gt;Если" style="rounded=1;whiteSpace=wrap;html=1;align=left;" vertex="1" parent="1">
                    <mxGeometry x="10" y="480" width="300" height="60" as="geometry"/>
                </mxCell>
                <mxCell id="18" value="Вход : pipe - труба&lt;br&gt;Выход - список линий, траектория&amp;nbsp; трубы или воздуховода" style="text;html=1;strokeColor=none;fillColor=none;align=left;verticalAlign=middle;whiteSpace=wrap;rounded=0;" vertex="1" parent="1">
                    <mxGeometry x="245" y="20" width="205" height="90" as="geometry"/>
                </mxCell>
                <mxCell id="20" value="" style="whiteSpace=wrap;html=1;align=left;rounded=1;" vertex="1" parent="1">
                    <mxGeometry x="370" y="480" width="120" height="60" as="geometry"/>
                </mxCell>
                <mxCell id="23" value="Ищем конечную точку в цепи воздуховодов&lt;br&gt;Конечная точка будет либо если воздуховод имеет один неприсоединенный конец, либо воздуховод присоединяется к&amp;nbsp;" style="shape=note;whiteSpace=wrap;html=1;backgroundOutline=1;darkOpacity=0.05;align=left;" vertex="1" parent="1">
                    <mxGeometry x="350" y="320" width="370" height="100" as="geometry"/>
                </mxCell>
                <mxCell id="24" value="Выход - конечные элементы участка трубы&lt;br&gt;Конечным элементом могут быть:&lt;br&gt;1. Труба - если у нее один конеч&amp;nbsp; не подключен никуда&lt;br&gt;2. Отвод - если у него есть один свободный&amp;nbsp; коннектор&lt;br&gt;3. Заглушка - в любом случае&amp;nbsp;&lt;br&gt;4. Тройник - если рассматриваемый сегмент подключен к тройнику на боковой коннектор." style="shape=note;whiteSpace=wrap;html=1;backgroundOutline=1;darkOpacity=0.05;align=left;" vertex="1" parent="1">
                    <mxGeometry x="260" y="860" width="370" height="100" as="geometry"/>
                </mxCell>
                <mxCell id="25" value="Боковой коннектор можно проверить так:&lt;br&gt;1. Нужно взять нормаль к рассматриваемому коннекотору&lt;br&gt;2. Нужно взять нормали двух других коннекторов.&lt;br&gt;3. Нужно получить векторные суммы n1 и n2 и n3/&lt;br&gt;4. Если хотя бы одна из них будет равна 0, то это проходной коннектор. если ни одна из них не будет равна 0 то это боковой коннектор" style="shape=note;whiteSpace=wrap;html=1;backgroundOutline=1;darkOpacity=0.05;align=left;" vertex="1" parent="1">
                    <mxGeometry x="1440" y="55" width="370" height="100" as="geometry"/>
                </mxCell>
                <mxCell id="26" value="Алгоритм проверки коннектора тройника является ли он боковым или проходным" style="text;html=1;strokeColor=none;fillColor=none;align=center;verticalAlign=middle;whiteSpace=wrap;rounded=0;fontSize=22;fontStyle=1" vertex="1" parent="1">
                    <mxGeometry x="960" y="55" width="450" height="90" as="geometry"/>
                </mxCell>
                <mxCell id="36" value="" style="edgeStyle=none;html=1;fontSize=14;" edge="1" parent="1" source="27" target="31">
                    <mxGeometry relative="1" as="geometry"/>
                </mxCell>
                <mxCell id="27" value="con0&lt;br&gt;part" style="ellipse;whiteSpace=wrap;html=1;fontSize=14;" vertex="1" parent="1">
                    <mxGeometry x="1131" y="170" width="89" height="40" as="geometry"/>
                </mxCell>
                <mxCell id="28" value="&lt;font size=&quot;1&quot;&gt;Вход:&lt;br&gt;1. Коннектор&lt;br&gt;2. Id части&lt;br&gt;Выход:&lt;br&gt;0 - если коннектор проходной&lt;br&gt;1 - если коннектор боковой&lt;br&gt;&lt;/font&gt;" style="shape=note;whiteSpace=wrap;html=1;backgroundOutline=1;darkOpacity=0.05;fontSize=22;align=left;verticalAlign=top;" vertex="1" parent="1">
                    <mxGeometry x="1330" y="190" width="360" height="180" as="geometry"/>
                </mxCell>
                <mxCell id="29" value="0" style="ellipse;whiteSpace=wrap;html=1;aspect=fixed;fontSize=14;" vertex="1" parent="1">
                    <mxGeometry x="1036.75" y="820" width="40" height="40" as="geometry"/>
                </mxCell>
                <mxCell id="30" value="1" style="ellipse;whiteSpace=wrap;html=1;aspect=fixed;fontSize=14;" vertex="1" parent="1">
                    <mxGeometry x="1290" y="810" width="40" height="40" as="geometry"/>
                </mxCell>
                <mxCell id="34" value="" style="edgeStyle=none;html=1;fontSize=14;" edge="1" parent="1" source="31" target="33">
                    <mxGeometry relative="1" as="geometry"/>
                </mxCell>
                <mxCell id="31" value="Взять коннекторы у детали.&lt;br&gt;&lt;br&gt;conns = part.MEPManager.Connectors" style="rounded=1;whiteSpace=wrap;html=1;fontSize=14;" vertex="1" parent="1">
                    <mxGeometry x="1066.75" y="250" width="215.5" height="80" as="geometry"/>
                </mxCell>
                <mxCell id="38" value="" style="edgeStyle=none;html=1;fontSize=14;" edge="1" parent="1" source="33" target="37">
                    <mxGeometry relative="1" as="geometry"/>
                </mxCell>
                <mxCell id="33" value="Выбрать коннекторы которые не являются рассматриваемым&lt;br&gt;con1 и con2" style="whiteSpace=wrap;html=1;fontSize=14;rounded=1;" vertex="1" parent="1">
                    <mxGeometry x="1061.75" y="360" width="225.5" height="60" as="geometry"/>
                </mxCell>
                <mxCell id="40" value="" style="edgeStyle=none;html=1;fontSize=14;" edge="1" parent="1" source="37" target="39">
                    <mxGeometry relative="1" as="geometry"/>
                </mxCell>
                <mxCell id="37" value="Взять нормали коннекторов:&lt;br&gt;n0 = con0.CoordinateSystem.BasisZ&lt;br&gt;n1, n2 - аналогично" style="whiteSpace=wrap;html=1;fontSize=14;rounded=1;" vertex="1" parent="1">
                    <mxGeometry x="1006.75" y="450" width="335.5" height="60" as="geometry"/>
                </mxCell>
                <mxCell id="42" value="" style="edgeStyle=none;html=1;fontSize=14;" edge="1" parent="1" source="39" target="41">
                    <mxGeometry relative="1" as="geometry"/>
                </mxCell>
                <mxCell id="39" value="Получить две суммы:&lt;br&gt;n01 = n0 + n1&lt;br&gt;n02 = n0 + n2" style="whiteSpace=wrap;html=1;fontSize=14;rounded=1;" vertex="1" parent="1">
                    <mxGeometry x="1089.5" y="550" width="170" height="80" as="geometry"/>
                </mxCell>
                <mxCell id="44" value="" style="edgeStyle=none;html=1;fontSize=14;" edge="1" parent="1" source="41" target="30">
                    <mxGeometry relative="1" as="geometry"/>
                </mxCell>
                <mxCell id="47" value="Ни один не равен 0, &lt;br&gt;то это боковой" style="edgeLabel;html=1;align=center;verticalAlign=middle;resizable=0;points=[];fontSize=14;" vertex="1" connectable="0" parent="44">
                    <mxGeometry x="0.3627" y="4" relative="1" as="geometry">
                        <mxPoint as="offset"/>
                    </mxGeometry>
                </mxCell>
                <mxCell id="45" style="edgeStyle=none;html=1;entryX=0.5;entryY=0;entryDx=0;entryDy=0;fontSize=14;" edge="1" parent="1" source="41" target="29">
                    <mxGeometry relative="1" as="geometry"/>
                </mxCell>
                <mxCell id="46" value="Хотя бы один равен&amp;nbsp; 0&lt;br&gt;то это проходной" style="edgeLabel;html=1;align=center;verticalAlign=middle;resizable=0;points=[];fontSize=14;" vertex="1" connectable="0" parent="45">
                    <mxGeometry x="0.216" y="3" relative="1" as="geometry">
                        <mxPoint as="offset"/>
                    </mxGeometry>
                </mxCell>
                <mxCell id="41" value="n01.GetLenght == 0 or n02.GetLength == 0" style="rhombus;whiteSpace=wrap;html=1;fontSize=14;rounded=1;" vertex="1" parent="1">
                    <mxGeometry x="1076.75" y="660" width="195.5" height="80" as="geometry"/>
                </mxCell>
                <mxCell id="48" value="Text" style="text;html=1;strokeColor=none;fillColor=none;align=center;verticalAlign=middle;whiteSpace=wrap;rounded=0;fontSize=14;" vertex="1" parent="1">
                    <mxGeometry x="570" y="25" width="60" height="30" as="geometry"/>
                </mxCell>
                <mxCell id="49" value="Поиск цепи трубопроводов и воздуходов" style="text;html=1;strokeColor=none;fillColor=none;align=center;verticalAlign=middle;whiteSpace=wrap;rounded=0;fontSize=22;fontStyle=1" vertex="1" parent="1">
                    <mxGeometry x="22.5" y="-1610" width="450" height="90" as="geometry"/>
                </mxCell>
                <mxCell id="52" value="" style="edgeStyle=none;html=1;fontSize=14;" edge="1" parent="1" source="50" target="51">
                    <mxGeometry relative="1" as="geometry"/>
                </mxCell>
                <mxCell id="50" value="part" style="rounded=1;whiteSpace=wrap;html=1;" vertex="1" parent="1">
                    <mxGeometry x="160" y="-1440" width="120" height="60" as="geometry"/>
                </mxCell>
                <mxCell id="54" value="" style="edgeStyle=none;html=1;fontSize=14;" edge="1" parent="1" source="51" target="53">
                    <mxGeometry relative="1" as="geometry"/>
                </mxCell>
                <mxCell id="61" value="Нет" style="edgeLabel;html=1;align=center;verticalAlign=middle;resizable=0;points=[];fontSize=14;" vertex="1" connectable="0" parent="54">
                    <mxGeometry x="-0.3691" y="-1" relative="1" as="geometry">
                        <mxPoint y="1" as="offset"/>
                    </mxGeometry>
                </mxCell>
                <mxCell id="66" value="" style="edgeStyle=none;html=1;fontSize=14;" edge="1" parent="1" source="51" target="65">
                    <mxGeometry relative="1" as="geometry"/>
                </mxCell>
                <mxCell id="51" value="Труба" style="rhombus;whiteSpace=wrap;html=1;rounded=1;" vertex="1" parent="1">
                    <mxGeometry x="180" y="-1310" width="80" height="80" as="geometry"/>
                </mxCell>
                <mxCell id="56" value="" style="edgeStyle=none;html=1;fontSize=14;" edge="1" parent="1" source="53" target="55">
                    <mxGeometry relative="1" as="geometry"/>
                </mxCell>
                <mxCell id="62" value="Нет" style="edgeLabel;html=1;align=center;verticalAlign=middle;resizable=0;points=[];fontSize=14;" vertex="1" connectable="0" parent="56">
                    <mxGeometry x="-0.4574" y="-4" relative="1" as="geometry">
                        <mxPoint y="1" as="offset"/>
                    </mxGeometry>
                </mxCell>
                <mxCell id="78" value="" style="edgeStyle=none;html=1;fontSize=14;" edge="1" parent="1" source="53" target="77">
                    <mxGeometry relative="1" as="geometry"/>
                </mxCell>
                <mxCell id="53" value="Отвод" style="rhombus;whiteSpace=wrap;html=1;rounded=1;" vertex="1" parent="1">
                    <mxGeometry x="180" y="-1150" width="80" height="80" as="geometry"/>
                </mxCell>
                <mxCell id="58" value="" style="edgeStyle=none;html=1;fontSize=14;" edge="1" parent="1" source="55" target="57">
                    <mxGeometry relative="1" as="geometry"/>
                </mxCell>
                <mxCell id="80" value="" style="edgeStyle=none;html=1;fontSize=14;" edge="1" parent="1" source="55" target="79">
                    <mxGeometry relative="1" as="geometry"/>
                </mxCell>
                <mxCell id="55" value="Тройник" style="rhombus;whiteSpace=wrap;html=1;rounded=1;" vertex="1" parent="1">
                    <mxGeometry x="180" y="-990" width="80" height="80" as="geometry"/>
                </mxCell>
                <mxCell id="60" value="" style="edgeStyle=none;html=1;fontSize=14;" edge="1" parent="1" source="57" target="59">
                    <mxGeometry relative="1" as="geometry"/>
                </mxCell>
                <mxCell id="64" value="Нет" style="edgeLabel;html=1;align=center;verticalAlign=middle;resizable=0;points=[];fontSize=14;" vertex="1" connectable="0" parent="60">
                    <mxGeometry x="-0.4279" y="-2" relative="1" as="geometry">
                        <mxPoint y="1" as="offset"/>
                    </mxGeometry>
                </mxCell>
                <mxCell id="82" value="" style="edgeStyle=none;html=1;fontSize=14;" edge="1" parent="1" source="57" target="81">
                    <mxGeometry relative="1" as="geometry"/>
                </mxCell>
                <mxCell id="57" value="Заглушка" style="rhombus;whiteSpace=wrap;html=1;rounded=1;" vertex="1" parent="1">
                    <mxGeometry x="180" y="-830" width="80" height="80" as="geometry"/>
                </mxCell>
                <mxCell id="69" value="" style="edgeStyle=none;html=1;fontSize=14;" edge="1" parent="1" source="59" target="68">
                    <mxGeometry relative="1" as="geometry"/>
                </mxCell>
                <mxCell id="72" value="Нет" style="edgeLabel;html=1;align=center;verticalAlign=middle;resizable=0;points=[];fontSize=14;" vertex="1" connectable="0" parent="69">
                    <mxGeometry x="-0.505" y="4" relative="1" as="geometry">
                        <mxPoint as="offset"/>
                    </mxGeometry>
                </mxCell>
                <mxCell id="84" value="" style="edgeStyle=none;html=1;fontSize=14;" edge="1" parent="1" source="59" target="83">
                    <mxGeometry relative="1" as="geometry"/>
                </mxCell>
                <mxCell id="59" value="Врезка" style="rhombus;whiteSpace=wrap;html=1;rounded=1;" vertex="1" parent="1">
                    <mxGeometry x="180" y="-670" width="80" height="80" as="geometry"/>
                </mxCell>
                <mxCell id="63" value="Нет" style="text;html=1;align=center;verticalAlign=middle;resizable=0;points=[];autosize=1;strokeColor=none;fillColor=none;fontSize=14;" vertex="1" parent="1">
                    <mxGeometry x="200" y="-890" width="40" height="20" as="geometry"/>
                </mxCell>
                <mxCell id="65" value="Проверить оба ли коннектора подключены" style="whiteSpace=wrap;html=1;rounded=1;" vertex="1" parent="1">
                    <mxGeometry x="320" y="-1300" width="120" height="60" as="geometry"/>
                </mxCell>
                <mxCell id="71" value="" style="edgeStyle=none;html=1;fontSize=14;" edge="1" parent="1" source="68" target="70">
                    <mxGeometry relative="1" as="geometry"/>
                </mxCell>
                <mxCell id="73" value="Нет" style="edgeLabel;html=1;align=center;verticalAlign=middle;resizable=0;points=[];fontSize=14;" vertex="1" connectable="0" parent="71">
                    <mxGeometry x="-0.405" relative="1" as="geometry">
                        <mxPoint as="offset"/>
                    </mxGeometry>
                </mxCell>
                <mxCell id="86" value="" style="edgeStyle=none;html=1;fontSize=14;" edge="1" parent="1" source="68" target="85">
                    <mxGeometry relative="1" as="geometry"/>
                </mxCell>
                <mxCell id="68" value="Арматура" style="rhombus;whiteSpace=wrap;html=1;rounded=1;" vertex="1" parent="1">
                    <mxGeometry x="180" y="-510" width="80" height="80" as="geometry"/>
                </mxCell>
                <mxCell id="75" value="" style="edgeStyle=none;html=1;fontSize=14;" edge="1" parent="1" source="70" target="74">
                    <mxGeometry relative="1" as="geometry"/>
                </mxCell>
                <mxCell id="76" value="Нет" style="edgeLabel;html=1;align=center;verticalAlign=middle;resizable=0;points=[];fontSize=14;" vertex="1" connectable="0" parent="75">
                    <mxGeometry x="0.3585" y="2" relative="1" as="geometry">
                        <mxPoint as="offset"/>
                    </mxGeometry>
                </mxCell>
                <mxCell id="89" value="" style="edgeStyle=none;html=1;fontSize=14;" edge="1" parent="1" source="70" target="88">
                    <mxGeometry relative="1" as="geometry"/>
                </mxCell>
                <mxCell id="70" value="Оборудование" style="rhombus;whiteSpace=wrap;html=1;rounded=1;" vertex="1" parent="1">
                    <mxGeometry x="180" y="-350" width="80" height="80" as="geometry"/>
                </mxCell>
                <mxCell id="74" value="Переход к следующей детали" style="whiteSpace=wrap;html=1;rounded=1;" vertex="1" parent="1">
                    <mxGeometry x="160" y="-180" width="120" height="60" as="geometry"/>
                </mxCell>
                <mxCell id="77" value="Проверить, оба ли коннектора подключено" style="whiteSpace=wrap;html=1;rounded=1;" vertex="1" parent="1">
                    <mxGeometry x="320" y="-1140" width="120" height="60" as="geometry"/>
                </mxCell>
                <mxCell id="79" value="Определить к какому типу коннектора подключена пред. труба (проходной или боковой" style="whiteSpace=wrap;html=1;rounded=1;" vertex="1" parent="1">
                    <mxGeometry x="320" y="-980" width="180" height="60" as="geometry"/>
                </mxCell>
                <mxCell id="81" value="Сразу является конечным элементом ветки" style="whiteSpace=wrap;html=1;rounded=1;" vertex="1" parent="1">
                    <mxGeometry x="320" y="-820" width="120" height="60" as="geometry"/>
                </mxCell>
                <mxCell id="83" value="Является конечным элементом врезки (т.к. у труб проверяем только коннеторы типа End" style="whiteSpace=wrap;html=1;rounded=1;" vertex="1" parent="1">
                    <mxGeometry x="320" y="-660" width="190" height="60" as="geometry"/>
                </mxCell>
                <mxCell id="87" style="edgeStyle=none;html=1;fontSize=14;" edge="1" parent="1" source="85">
                    <mxGeometry relative="1" as="geometry">
                        <mxPoint x="450" y="-480" as="targetPoint"/>
                    </mxGeometry>
                </mxCell>
                <mxCell id="85" value="Не является частью ветки, но при этом подключенная труба будет являться конечным элементом" style="whiteSpace=wrap;html=1;rounded=1;" vertex="1" parent="1">
                    <mxGeometry x="320" y="-500" width="190" height="60" as="geometry"/>
                </mxCell>
                <mxCell id="88" value="Не является частью ветки но при этом предшествующая труба будет являться конечным элементом" style="whiteSpace=wrap;html=1;rounded=1;" vertex="1" parent="1">
                    <mxGeometry x="320" y="-340" width="180" height="60" as="geometry"/>
                </mxCell>
                <mxCell id="92" value="" style="edgeStyle=none;html=1;fontSize=14;" edge="1" parent="1" source="90" target="91">
                    <mxGeometry relative="1" as="geometry"/>
                </mxCell>
                <mxCell id="93" value="" style="edgeStyle=none;html=1;fontSize=14;" edge="1" parent="1" source="90" target="91">
                    <mxGeometry relative="1" as="geometry"/>
                </mxCell>
                <mxCell id="95" value="" style="edgeStyle=none;html=1;fontSize=14;" edge="1" parent="1" source="90" target="94">
                    <mxGeometry relative="1" as="geometry"/>
                </mxCell>
                <mxCell id="90" value="Actor" style="shape=umlActor;verticalLabelPosition=bottom;verticalAlign=top;html=1;outlineConnect=0;fontSize=14;" vertex="1" parent="1">
                    <mxGeometry x="110" y="-1830" width="30" height="60" as="geometry"/>
                </mxCell>
                <mxCell id="97" value="" style="edgeStyle=none;html=1;fontSize=14;" edge="1" parent="1" source="91" target="96">
                    <mxGeometry relative="1" as="geometry"/>
                </mxCell>
                <mxCell id="91" value="Изменение диаметра ветки в зависимости от количества подключенных спринклеров" style="whiteSpace=wrap;html=1;fontSize=14;verticalAlign=top;" vertex="1" parent="1">
                    <mxGeometry x="215" y="-1890" width="255" height="60" as="geometry"/>
                </mxCell>
                <mxCell id="99" value="" style="edgeStyle=none;html=1;fontSize=14;" edge="1" parent="1" source="94" target="98">
                    <mxGeometry relative="1" as="geometry"/>
                </mxCell>
                <mxCell id="94" value="Поиск пути вдоль которого расставлять спринклеры од воздуховодами" style="whiteSpace=wrap;html=1;fontSize=14;verticalAlign=top;" vertex="1" parent="1">
                    <mxGeometry x="222.5" y="-1790" width="250" height="60" as="geometry"/>
                </mxCell>
                <mxCell id="96" value="Для этого необходимо определить точку в которой начинается по сути ветка... Где она подключается к магистрали - это либо тройник" style="whiteSpace=wrap;html=1;fontSize=14;verticalAlign=top;" vertex="1" parent="1">
                    <mxGeometry x="570" y="-1890" width="320" height="60" as="geometry"/>
                </mxCell>
                <mxCell id="98" value="Необходимо выбрать последовательно соединенные воздуховоды включая отводы, тройники" style="whiteSpace=wrap;html=1;fontSize=14;verticalAlign=top;" vertex="1" parent="1">
                    <mxGeometry x="617.5" y="-1790" width="282.5" height="60" as="geometry"/>
                </mxCell>
                <mxCell id="100" value="Варианты использования функции" style="text;html=1;strokeColor=none;fillColor=none;align=center;verticalAlign=middle;whiteSpace=wrap;rounded=0;fontSize=22;fontStyle=1" vertex="1" parent="1">
                    <mxGeometry x="100" y="-2040" width="450" height="90" as="geometry"/>
                </mxCell>
            </root>
        </mxGraphModel>
    </diagram>
</mxfile>